<svg width="182" height="32" viewBox="0 0 182 32" fill="none" xmlns="http://www.w3.org/2000/svg">
<path d="M0.234375 17.3253V12.8253L18.2344 4.89915V10.0767L5.91051 15.0241L6.0767 14.7557V15.3949L5.91051 15.1264L18.2344 20.0739V25.2514L0.234375 17.3253ZM32.0763 1.81818H38.9031L46.1133 19.4091H46.4201L53.6303 1.81818H60.457V28H55.0877V10.9588H54.8704L48.0948 27.8722H44.4386L37.663 10.8949H37.4457V28H32.0763V1.81818ZM70.5149 28.3707C69.2621 28.3707 68.1456 28.1534 67.1655 27.7188C66.1854 27.2756 65.4098 26.6236 64.8388 25.7628C64.2763 24.8935 63.995 23.8111 63.995 22.5156C63.995 21.4247 64.1953 20.5085 64.5959 19.767C64.9964 19.0256 65.5419 18.429 66.2322 17.9773C66.9226 17.5256 67.7067 17.1847 68.5845 16.9545C69.4709 16.7244 70.3999 16.5625 71.3714 16.4688C72.5135 16.3494 73.4339 16.2386 74.1328 16.1364C74.8317 16.0256 75.3388 15.8636 75.6541 15.6506C75.9695 15.4375 76.1271 15.1222 76.1271 14.7045V14.6278C76.1271 13.8182 75.8714 13.1918 75.3601 12.7486C74.8572 12.3054 74.1413 12.0838 73.2124 12.0838C72.2322 12.0838 71.4524 12.3011 70.8729 12.7358C70.2933 13.1619 69.9098 13.6989 69.7223 14.3466L64.6854 13.9375C64.9411 12.7443 65.4439 11.7131 66.1939 10.8438C66.9439 9.96591 67.9112 9.29261 69.0959 8.82386C70.2891 8.34659 71.6697 8.10795 73.2379 8.10795C74.3288 8.10795 75.3729 8.2358 76.37 8.49148C77.3757 8.74716 78.2663 9.14347 79.0419 9.6804C79.826 10.2173 80.4439 10.9077 80.8956 11.7514C81.3473 12.5866 81.5732 13.5881 81.5732 14.7557V28H76.4084V25.277H76.255C75.9396 25.8906 75.5178 26.4318 74.9893 26.9006C74.4609 27.3608 73.826 27.723 73.0845 27.9872C72.343 28.2429 71.4865 28.3707 70.5149 28.3707ZM72.0746 24.6122C72.8757 24.6122 73.5831 24.4545 74.1967 24.1392C74.8104 23.8153 75.2919 23.3807 75.6413 22.8352C75.9908 22.2898 76.1655 21.6719 76.1655 20.9815V18.8977C75.995 19.0085 75.7607 19.1108 75.4624 19.2045C75.1726 19.2898 74.8445 19.3707 74.478 19.4474C74.1115 19.5156 73.745 19.5795 73.3786 19.6392C73.0121 19.6903 72.6797 19.7372 72.3814 19.7798C71.7422 19.8736 71.1839 20.0227 70.7067 20.2273C70.2294 20.4318 69.8587 20.7088 69.5945 21.0582C69.3303 21.3991 69.1982 21.8253 69.1982 22.3366C69.1982 23.0781 69.4666 23.6449 70.0036 24.0369C70.549 24.4205 71.2393 24.6122 72.0746 24.6122ZM96.2429 8.36364V12.4545H84.4176V8.36364H96.2429ZM87.1023 3.65909H92.5483V21.9659C92.5483 22.4687 92.625 22.8608 92.7784 23.142C92.9318 23.4148 93.1449 23.6065 93.4176 23.7173C93.6989 23.8281 94.0227 23.8835 94.3892 23.8835C94.6449 23.8835 94.9006 23.8622 95.1562 23.8196C95.4119 23.7685 95.608 23.7301 95.7443 23.7045L96.6009 27.7571C96.3281 27.8423 95.9446 27.9403 95.4503 28.0511C94.956 28.1705 94.3551 28.2429 93.6477 28.2685C92.3352 28.3196 91.1847 28.1449 90.196 27.7443C89.2159 27.3437 88.4531 26.7216 87.9077 25.8778C87.3622 25.0341 87.0938 23.9687 87.1023 22.6818V3.65909ZM110.235 8.36364V12.4545H98.4098V8.36364H110.235ZM101.094 3.65909H106.54V21.9659C106.54 22.4687 106.617 22.8608 106.771 23.142C106.924 23.4148 107.137 23.6065 107.41 23.7173C107.691 23.8281 108.015 23.8835 108.381 23.8835C108.637 23.8835 108.893 23.8622 109.148 23.8196C109.404 23.7685 109.6 23.7301 109.737 23.7045L110.593 27.7571C110.32 27.8423 109.937 27.9403 109.442 28.0511C108.948 28.1705 108.347 28.2429 107.64 28.2685C106.327 28.3196 105.177 28.1449 104.188 27.7443C103.208 27.3437 102.445 26.7216 101.9 25.8778C101.354 25.0341 101.086 23.9687 101.094 22.6818V3.65909ZM112.14 1.81818H118.34L124.31 13.0938H124.566L130.536 1.81818H136.737L127.187 18.7443V28H121.69V18.7443L112.14 1.81818ZM159.393 0.590907L150.956 31.9375H146.264L154.701 0.590907H159.393ZM181.078 19.7798L163.078 27.706V22.5284L175.402 17.581L175.236 17.8494V17.2102L175.402 17.4787L163.078 12.5312V7.35369L181.078 15.2798V19.7798Z" fill="black"/>
</svg>
