<svg width="100" height="100" viewBox="0 0 100 100" fill="none" xmlns="http://www.w3.org/2000/svg">
<g clip-path="url(#clip0_102_6)">
<path d="M26.6667 40H33.3333V33.3333H26.6667V40ZM66.6667 40H73.3333V33.3333H66.6667V40ZM67.3333 58C65.3151 60.6909 62.6982 62.875 59.6896 64.3793C56.6811 65.8835 53.3636 66.6667 50 66.6667C46.6364 66.6667 43.3189 65.8835 40.3104 64.3793C37.3018 62.875 34.6849 60.6909 32.6667 58L27.3333 62C38.6667 77.1133 61.3333 77.1133 72.6667 62L67.3333 58ZM6.66667 33.3333V16.6667H0V33.3333H6.66667ZM16.6667 6.66667H33.3333V0H16.6667V6.66667ZM6.66667 16.6667C6.66667 14.0145 7.72024 11.471 9.5956 9.5956C11.471 7.72024 14.0145 6.66667 16.6667 6.66667V0C12.2464 0 8.00716 1.75595 4.88155 4.88155C1.75595 8.00716 0 12.2464 0 16.6667H6.66667ZM0 66.6667V83.3333H6.66667V66.6667H0ZM16.6667 100H33.3333V93.3333H16.6667V100ZM0 83.3333C0 87.7536 1.75595 91.9928 4.88155 95.1184C8.00716 98.2441 12.2464 100 16.6667 100V93.3333C14.0145 93.3333 11.471 92.2798 9.5956 90.4044C7.72024 88.529 6.66667 85.9855 6.66667 83.3333H0ZM66.6667 6.66667H83.3333V0H66.6667V6.66667ZM93.3333 16.6667V33.3333H100V16.6667H93.3333ZM83.3333 6.66667C85.9855 6.66667 88.529 7.72024 90.4044 9.5956C92.2798 11.471 93.3333 14.0145 93.3333 16.6667H100C100 12.2464 98.2441 8.00716 95.1184 4.88155C91.9928 1.75595 87.7536 0 83.3333 0V6.66667ZM66.6667 100H83.3333V93.3333H66.6667V100ZM100 83.3333V66.6667H93.3333V83.3333H100ZM83.3333 100C87.7536 100 91.9928 98.2441 95.1184 95.1184C98.2441 91.9928 100 87.7536 100 83.3333H93.3333C93.3333 85.9855 92.2798 88.529 90.4044 90.4044C88.529 92.2798 85.9855 93.3333 83.3333 93.3333V100Z" fill="white"/>
</g>
<defs>
<clipPath id="clip0_102_6">
<rect width="100" height="100" fill="white"/>
</clipPath>
</defs>
</svg>
